<svg width="19" height="19" viewBox="0 0 19 19" fill="none" xmlns="http://www.w3.org/2000/svg">
<path id="Vector" d="M18.4507 16.2088L14.9903 12.749C14.8341 12.5929 14.6224 12.5061 14.4002 12.5061H13.8345C14.7924 11.2811 15.3617 9.74035 15.3617 8.06424C15.3617 4.07696 12.1303 0.846191 8.14237 0.846191C4.15442 0.846191 0.923096 4.07696 0.923096 8.06424C0.923096 12.0515 4.15442 15.2823 8.14237 15.2823C9.81877 15.2823 11.3598 14.7132 12.585 13.7554V14.321C12.585 14.5431 12.6718 14.7548 12.828 14.911L16.2884 18.3708C16.6146 18.697 17.1422 18.697 17.465 18.3708L18.4472 17.3887C18.7735 17.0625 18.7735 16.535 18.4507 16.2088ZM8.14237 12.5061C5.68851 12.5061 3.69974 10.5211 3.69974 8.06424C3.69974 5.6108 5.68504 3.62236 8.14237 3.62236C10.5962 3.62236 12.585 5.60733 12.585 8.06424C12.585 10.5177 10.5997 12.5061 8.14237 12.5061Z" fill="white"/>
</svg>
