<svg width="29" height="32" viewBox="0 0 29 32" fill="none" xmlns="http://www.w3.org/2000/svg">
<rect width="28.7829" height="31.02" rx="14.3915" fill="#1252AE" fill-opacity="0.12"/>
<path d="M11.1533 14.7348C11.9928 16.5443 13.432 18.0307 15.111 19.0001L16.4302 17.5783C16.6101 17.3845 16.85 17.3198 17.0299 17.4491C17.6895 17.7076 18.409 17.8368 19.1886 17.8368C19.5484 17.8368 19.7882 18.0953 19.7882 18.4831V20.6803C19.7882 21.0681 19.5484 21.3266 19.1886 21.3266C13.5519 21.3266 8.99463 16.4151 8.99463 10.3403C8.99463 9.95259 9.29445 9.69409 9.59427 9.69409H11.693C12.0528 9.69409 12.2927 9.95259 12.2927 10.3403C12.2927 11.1158 12.4126 11.8913 12.6525 12.6668C12.7124 12.8607 12.6525 13.1192 12.5325 13.3131L11.1533 14.7348ZM15.5907 9.69409C15.2309 9.69409 14.9911 9.95259 14.9911 10.3403C14.9911 10.7281 15.2309 10.9866 15.5907 10.9866C15.9505 10.9866 16.1904 10.7281 16.1904 10.3403C16.1904 9.95259 15.9505 9.69409 15.5907 9.69409ZM17.3896 9.69409C17.0299 9.69409 16.79 9.95259 16.79 10.3403C16.79 10.7281 17.0299 10.9866 17.3896 10.9866C17.7494 10.9866 17.9893 10.7281 17.9893 10.3403C17.9893 9.95259 17.7494 9.69409 17.3896 9.69409ZM19.1886 9.69409C18.8288 9.69409 18.5889 9.95259 18.5889 10.3403C18.5889 10.7281 18.8288 10.9866 19.1886 10.9866C19.5484 10.9866 19.7882 10.7281 19.7882 10.3403C19.7882 9.95259 19.5484 9.69409 19.1886 9.69409ZM15.5907 11.6328C15.2309 11.6328 14.9911 11.8913 14.9911 12.2791C14.9911 12.6668 15.2309 12.9253 15.5907 12.9253C15.9505 12.9253 16.1904 12.6668 16.1904 12.2791C16.1904 11.8913 15.9505 11.6328 15.5907 11.6328ZM17.3896 11.6328C17.0299 11.6328 16.79 11.8913 16.79 12.2791C16.79 12.6668 17.0299 12.9253 17.3896 12.9253C17.7494 12.9253 17.9893 12.6668 17.9893 12.2791C17.9893 11.8913 17.7494 11.6328 17.3896 11.6328ZM19.1886 11.6328C18.8288 11.6328 18.5889 11.8913 18.5889 12.2791C18.5889 12.6668 18.8288 12.9253 19.1886 12.9253C19.5484 12.9253 19.7882 12.6668 19.7882 12.2791C19.7882 11.8913 19.5484 11.6328 19.1886 11.6328ZM15.5907 13.5716C15.2309 13.5716 14.9911 13.8301 14.9911 14.2178C14.9911 14.6056 15.2309 14.8641 15.5907 14.8641C15.9505 14.8641 16.1904 14.6056 16.1904 14.2178C16.1904 13.8301 15.9505 13.5716 15.5907 13.5716ZM17.3896 13.5716C17.0299 13.5716 16.79 13.8301 16.79 14.2178C16.79 14.6056 17.0299 14.8641 17.3896 14.8641C17.7494 14.8641 17.9893 14.6056 17.9893 14.2178C17.9893 13.8301 17.7494 13.5716 17.3896 13.5716ZM19.1886 13.5716C18.8288 13.5716 18.5889 13.8301 18.5889 14.2178C18.5889 14.6056 18.8288 14.8641 19.1886 14.8641C19.5484 14.8641 19.7882 14.6056 19.7882 14.2178C19.7882 13.8301 19.5484 13.5716 19.1886 13.5716Z" fill="#1252AE"/>
</svg>
