<svg width="36" height="36" viewBox="0 0 36 36" fill="none" xmlns="http://www.w3.org/2000/svg">
<rect y="0.836914" width="35.038" height="34.2631" rx="4.37975" fill="#E9EDF2" fill-opacity="0.1"/>
<path d="M17.519 9.08154C12.5005 9.08154 8.39453 13.0878 8.39453 18.0221C8.39453 22.4834 11.7341 26.1863 16.0956 26.8555V20.6097H13.778V18.0221H16.0956V16.0502C16.0956 13.8106 17.4551 12.5792 19.5446 12.5792C20.5392 12.5792 21.5794 12.7488 21.5794 12.7488V14.9527H20.4297C19.2983 14.9527 18.9424 15.6397 18.9424 16.3446V18.0221H21.479L21.0684 20.6097H18.9424V26.8555C21.0926 26.5235 23.0505 25.4507 24.4627 23.8308C25.8749 22.2109 26.6484 20.1507 26.6435 18.0221C26.6435 13.0878 22.5375 9.08154 17.519 9.08154Z" fill="#225DF4"/>
</svg>
