<svg width="37" height="36" viewBox="0 0 37 36" fill="none" xmlns="http://www.w3.org/2000/svg">
<rect x="0.987305" y="0.836914" width="35.038" height="34.2631" rx="4.37975" fill="#E9EDF2" fill-opacity="0.1"/>
<path d="M14.6745 9.0459H22.3391C25.2589 9.0459 27.6313 11.3658 27.6313 14.2211V21.7161C27.6313 23.0887 27.0737 24.405 26.0812 25.3755C25.0888 26.346 23.7427 26.8913 22.3391 26.8913H14.6745C11.7547 26.8913 9.38232 24.5714 9.38232 21.7161V14.2211C9.38232 12.8485 9.93989 11.5322 10.9324 10.5617C11.9249 9.59114 13.2709 9.0459 14.6745 9.0459ZM14.492 10.8304C13.6208 10.8304 12.7853 11.1689 12.1693 11.7713C11.5533 12.3737 11.2072 13.1907 11.2072 14.0426V21.8946C11.2072 23.6702 12.6763 25.1067 14.492 25.1067H22.5216C23.3928 25.1067 24.2283 24.7683 24.8443 24.1659C25.4603 23.5635 25.8064 22.7465 25.8064 21.8946V14.0426C25.8064 12.267 24.3373 10.8304 22.5216 10.8304H14.492ZM23.2972 12.1688C23.5997 12.1688 23.8898 12.2863 24.1037 12.4955C24.3175 12.7047 24.4377 12.9884 24.4377 13.2842C24.4377 13.58 24.3175 13.8637 24.1037 14.0728C23.8898 14.282 23.5997 14.3995 23.2972 14.3995C22.9947 14.3995 22.7046 14.282 22.4907 14.0728C22.2768 13.8637 22.1566 13.58 22.1566 13.2842C22.1566 12.9884 22.2768 12.7047 22.4907 12.4955C22.7046 12.2863 22.9947 12.1688 23.2972 12.1688ZM18.5068 13.5072C19.7168 13.5072 20.8772 13.9773 21.7328 14.8139C22.5884 15.6506 23.069 16.7854 23.069 17.9686C23.069 19.1518 22.5884 20.2866 21.7328 21.1232C20.8772 21.9599 19.7168 22.4299 18.5068 22.4299C17.2968 22.4299 16.1364 21.9599 15.2808 21.1232C14.4252 20.2866 13.9446 19.1518 13.9446 17.9686C13.9446 16.7854 14.4252 15.6506 15.2808 14.8139C16.1364 13.9773 17.2968 13.5072 18.5068 13.5072ZM18.5068 15.2918C17.7808 15.2918 17.0846 15.5738 16.5712 16.0758C16.0579 16.5778 15.7695 17.2587 15.7695 17.9686C15.7695 18.6785 16.0579 19.3594 16.5712 19.8614C17.0846 20.3634 17.7808 20.6454 18.5068 20.6454C19.2328 20.6454 19.929 20.3634 20.4424 19.8614C20.9557 19.3594 21.2441 18.6785 21.2441 17.9686C21.2441 17.2587 20.9557 16.5778 20.4424 16.0758C19.929 15.5738 19.2328 15.2918 18.5068 15.2918Z" fill="url(#paint0_linear_8_7825)"/>
<defs>
<linearGradient id="paint0_linear_8_7825" x1="18.5068" y1="9.0459" x2="18.5068" y2="26.8913" gradientUnits="userSpaceOnUse">
<stop stop-color="#FA00FF"/>
<stop offset="0.494792" stop-color="#FF0000" stop-opacity="0.505208"/>
<stop offset="1" stop-color="#FFF500"/>
</linearGradient>
</defs>
</svg>
