<svg width="29" height="28" viewBox="0 0 29 28" fill="none" xmlns="http://www.w3.org/2000/svg">
<rect width="28.7829" height="27.6602" rx="13.8301" fill="#1252AE" fill-opacity="0.12"/>
<g clip-path="url(#clip0_8_7853)">
<path d="M14.3914 9.21989C15.7106 9.21989 16.79 10.2571 16.79 11.5249C16.79 12.735 15.5307 14.6943 14.3914 16.0773C13.2521 14.6367 11.9928 12.735 11.9928 11.5249C11.9928 10.2571 13.0722 9.21989 14.3914 9.21989ZM14.3914 8.06738C12.4126 8.06738 10.7935 9.62327 10.7935 11.5249C10.7935 14.118 14.3914 17.8637 14.3914 17.8637C14.3914 17.8637 17.9893 14.0604 17.9893 11.5249C17.9893 9.62327 16.3702 8.06738 14.3914 8.06738ZM14.3914 10.3724C13.7318 10.3724 13.1921 10.891 13.1921 11.5249C13.1921 12.1588 13.7318 12.6774 14.3914 12.6774C15.051 12.6774 15.5907 12.1588 15.5907 11.5249C15.5907 10.891 15.051 10.3724 14.3914 10.3724ZM19.1885 17.8637C19.1885 19.1314 17.0298 20.1687 14.3914 20.1687C11.753 20.1687 9.59424 19.1314 9.59424 17.8637C9.59424 17.1146 10.3138 16.4807 11.4531 16.0197L11.8129 16.5383C11.2133 16.8264 10.7935 17.1722 10.7935 17.5756C10.7935 18.3823 12.4126 19.0162 14.3914 19.0162C16.3702 19.0162 17.9893 18.3823 17.9893 17.5756C17.9893 17.1722 17.5695 16.8264 16.9099 16.5383L17.2697 16.0197C18.469 16.4807 19.1885 17.1146 19.1885 17.8637Z" fill="#1252AE"/>
</g>
<defs>
<clipPath id="clip0_8_7853">
<rect width="14.3915" height="13.8301" fill="white" transform="translate(7.19556 6.91479)"/>
</clipPath>
</defs>
</svg>
