<svg width="37" height="36" viewBox="0 0 37 36" fill="none" xmlns="http://www.w3.org/2000/svg">
<rect x="0.974854" y="0.836914" width="35.038" height="34.2631" rx="4.37975" fill="#E9EDF2" fill-opacity="0.1"/>
<path d="M18.5211 22.0104C16.094 22.0104 15.0082 20.8415 15.0082 19.9671C15.0082 19.521 15.3458 19.1997 15.8112 19.1997C16.8514 19.1997 16.5868 20.6452 18.5211 20.6452C19.5157 20.6452 20.0723 20.1366 20.0723 19.5923C20.0723 19.2711 19.9081 18.9142 19.2511 18.7536L17.0886 18.2272C15.3458 17.7989 15.0265 16.8798 15.0265 16.0143C15.0265 14.212 16.7601 13.5338 18.3843 13.5338C19.8624 13.5338 21.6508 14.3458 21.6508 15.4254C21.6508 15.8894 21.2311 16.1571 20.7749 16.1571C19.8624 16.1571 20.0449 14.9525 18.2565 14.9525C17.3715 14.9525 16.8787 15.3451 16.8787 15.9073C16.8787 16.4694 17.5813 16.63 18.1835 16.7906L19.7894 17.1386C21.5413 17.5223 21.9884 18.5216 21.9884 19.4585C21.9884 20.9218 20.8388 22.0104 18.5211 22.0104ZM23.9685 12.6148C25.8572 14.435 26.5689 16.978 26.1218 19.3514C26.4959 19.9939 26.7058 20.7434 26.7058 21.5375C26.7058 22.7207 26.2251 23.8555 25.3695 24.6921C24.514 25.5288 23.3535 25.9988 22.1436 25.9988C21.3315 25.9988 20.565 25.7936 19.9081 25.4278C17.481 25.865 14.8805 25.169 13.0191 23.322C11.1303 21.5018 10.4186 18.9588 10.8657 16.5854C10.4916 15.943 10.2817 15.1935 10.2817 14.3993C10.2817 13.2161 10.7624 12.0814 11.618 11.2447C12.4736 10.408 13.634 9.93799 14.844 9.93799C15.6561 9.93799 16.4225 10.1432 17.0795 10.509C19.5066 10.0718 22.1071 10.7678 23.9685 12.6148ZM14.844 11.7225C14.118 11.7225 13.4217 12.0045 12.9084 12.5065C12.395 13.0085 12.1066 13.6894 12.1066 14.3993C12.1066 15.1042 12.3804 15.7377 12.8366 16.2196C12.1979 18.2182 12.6815 20.4846 14.2965 22.0728C15.9207 23.6522 18.2383 24.1251 20.2822 23.5005C20.7749 23.9466 21.4227 24.2143 22.1436 24.2143C22.8695 24.2143 23.5658 23.9323 24.0792 23.4303C24.5925 22.9283 24.8809 22.2474 24.8809 21.5375C24.8809 20.8326 24.6072 20.1991 24.1509 19.7173C24.7897 17.7186 24.3061 15.4522 22.691 13.864C21.0669 12.2847 18.7493 11.8118 16.7054 12.4363C16.2126 11.9902 15.5648 11.7225 14.844 11.7225Z" fill="#00A3FE"/>
</svg>
