<svg width="36" height="36" viewBox="0 0 36 36" fill="none" xmlns="http://www.w3.org/2000/svg">
<rect x="0.962158" y="0.836914" width="35.038" height="34.2631" rx="4.37975" fill="#E9EDF2" fill-opacity="0.1"/>
<path d="M18.5172 9.0459C13.5352 9.0459 9.47485 13.0165 9.47485 17.8883C9.47485 19.4498 9.89458 20.9666 10.6793 22.305L9.40186 26.8913L14.1922 25.6599C15.5153 26.3648 17.0025 26.7396 18.5172 26.7396C23.4992 26.7396 27.5596 22.769 27.5596 17.8972C27.5596 15.5327 26.6197 13.3109 24.9135 11.6424C23.2072 9.96494 20.9352 9.0459 18.5172 9.0459ZM18.5263 10.536C20.5337 10.536 22.4134 11.3033 23.8368 12.6953C25.2511 14.0872 26.0358 15.9342 26.0358 17.8972C26.0358 21.9481 22.6597 25.2406 18.5172 25.2406C17.1668 25.2406 15.8437 24.8926 14.6941 24.2145L14.4203 24.0628L11.5735 24.7944L12.3308 22.0819L12.1483 21.7964C11.4001 20.6454 10.9986 19.2802 10.9986 17.8883C11.0078 13.8374 14.3747 10.536 18.5263 10.536ZM15.3145 13.8017C15.1685 13.8017 14.9222 13.8552 14.7123 14.0783C14.5116 14.3014 13.9185 14.8456 13.9185 15.9253C13.9185 17.0139 14.7306 18.0578 14.8309 18.2095C14.9587 18.3612 16.4368 20.5919 18.7088 21.5377C19.2472 21.7786 19.6669 21.9124 19.9954 22.0106C20.5337 22.1801 21.0264 22.1533 21.4188 22.0998C21.8568 22.0373 22.751 21.5644 22.9426 21.0469C23.1342 20.5294 23.1342 20.0922 23.0794 19.994C23.0156 19.9048 22.8696 19.8513 22.6415 19.7531C22.4134 19.6282 21.3002 19.0928 21.0994 19.0215C20.8896 18.9501 20.7618 18.9144 20.5885 19.1285C20.4425 19.3516 20.0045 19.8513 19.8768 19.994C19.7399 20.1457 19.6121 20.1636 19.3932 20.0565C19.1559 19.9405 18.426 19.7085 17.5683 18.959C16.8931 18.3701 16.446 17.6474 16.3091 17.4243C16.1996 17.2102 16.3 17.0763 16.4095 16.9782C16.5098 16.88 16.6558 16.7194 16.7471 16.5856C16.8657 16.4607 16.9022 16.3625 16.9752 16.2197C17.0482 16.0681 17.0117 15.9431 16.9569 15.8361C16.9022 15.7379 16.446 14.6315 16.2543 14.1943C16.0718 13.766 15.8894 13.8195 15.7434 13.8106C15.6156 13.8106 15.4696 13.8017 15.3145 13.8017Z" fill="#62DE00"/>
</svg>
