<svg width="11" height="12" viewBox="0 0 11 12" fill="none" xmlns="http://www.w3.org/2000/svg">
<circle cx="5.24677" cy="5.81001" r="4.87446" fill="white"/>
<g filter="url(#filter0_d_611_14968)">
<path d="M5.31218 4.74193C4.68511 4.74193 4.17932 5.24784 4.17932 5.87504C4.17932 6.50224 4.68511 7.00814 5.31218 7.00814C5.93924 7.00814 6.44503 6.50224 6.44503 5.87504C6.44503 5.24784 5.93924 4.74193 5.31218 4.74193ZM5.31218 6.6117C4.90695 6.6117 4.57567 6.28134 4.57567 5.87504C4.57567 5.46874 4.90597 5.13837 5.31218 5.13837C5.71839 5.13837 6.04868 5.46874 6.04868 5.87504C6.04868 6.28134 5.7174 6.6117 5.31218 6.6117ZM6.7556 4.69558C6.7556 4.84252 6.63729 4.95987 6.49137 4.95987C6.34446 4.95987 6.22714 4.84153 6.22714 4.69558C6.22714 4.54963 6.34545 4.43129 6.49137 4.43129C6.63729 4.43129 6.7556 4.54963 6.7556 4.69558ZM7.50591 4.96382C7.48915 4.60979 7.4083 4.29618 7.149 4.03781C6.89068 3.77943 6.57715 3.69857 6.22319 3.68082C5.85839 3.66011 4.76498 3.66011 4.40017 3.68082C4.04721 3.69758 3.73367 3.77845 3.47437 4.03682C3.21507 4.2952 3.1352 4.6088 3.11746 4.96283C3.09675 5.32771 3.09675 6.42137 3.11746 6.78626C3.13422 7.14029 3.21507 7.45389 3.47437 7.71227C3.73367 7.97064 4.04622 8.05151 4.40017 8.06926C4.76498 8.08997 5.85839 8.08997 6.22319 8.06926C6.57715 8.0525 6.89068 7.97163 7.149 7.71227C7.40731 7.45389 7.48816 7.14029 7.50591 6.78626C7.52661 6.42137 7.52661 5.3287 7.50591 4.96382ZM7.03463 7.17776C6.95772 7.37105 6.80884 7.51996 6.61461 7.59787C6.32376 7.71325 5.63359 7.68663 5.31218 7.68663C4.99076 7.68663 4.29961 7.71227 4.00974 7.59787C3.81649 7.52095 3.66762 7.37204 3.58973 7.17776C3.47437 6.88685 3.50099 6.19653 3.50099 5.87504C3.50099 5.55355 3.47536 4.86224 3.58973 4.57231C3.66663 4.37902 3.81551 4.23011 4.00974 4.1522C4.30059 4.03682 4.99076 4.06345 5.31218 4.06345C5.63359 4.06345 6.32474 4.03781 6.61461 4.1522C6.80786 4.22912 6.95674 4.37804 7.03463 4.57231C7.14998 4.86323 7.12336 5.55355 7.12336 5.87504C7.12336 6.19653 7.14998 6.88783 7.03463 7.17776Z" fill="url(#paint0_linear_611_14968)" shape-rendering="crispEdges"/>
</g>
<defs>
<filter id="filter0_d_611_14968" x="1.60918" y="3.66528" width="7.40506" height="7.40506" filterUnits="userSpaceOnUse" color-interpolation-filters="sRGB">
<feFlood flood-opacity="0" result="BackgroundImageFix"/>
<feColorMatrix in="SourceAlpha" type="matrix" values="0 0 0 0 0 0 0 0 0 0 0 0 0 0 0 0 0 0 127 0" result="hardAlpha"/>
<feOffset dy="1.49275"/>
<feGaussianBlur stdDeviation="0.746377"/>
<feComposite in2="hardAlpha" operator="out"/>
<feColorMatrix type="matrix" values="0 0 0 0 0 0 0 0 0 0 0 0 0 0 0 0 0 0 0.25 0"/>
<feBlend mode="normal" in2="BackgroundImageFix" result="effect1_dropShadow_611_14968"/>
<feBlend mode="normal" in="SourceGraphic" in2="effect1_dropShadow_611_14968" result="shape"/>
</filter>
<linearGradient id="paint0_linear_611_14968" x1="5.39176" y1="3.58293" x2="5.39176" y2="8.00012" gradientUnits="userSpaceOnUse">
<stop stop-color="#CC00FF"/>
<stop offset="0.507812" stop-color="#FF0000" stop-opacity="0.492188"/>
<stop offset="1" stop-color="#FFF500"/>
</linearGradient>
</defs>
</svg>
