<svg width="39" height="38" viewBox="0 0 39 38" fill="none" xmlns="http://www.w3.org/2000/svg">
<path d="M10.7646 29.499V27.7685C10.7646 22.9899 14.6887 19.116 19.5293 19.116C24.3698 19.116 28.2939 22.9899 28.2939 27.7685V29.499" stroke="#015AB8" stroke-width="2.12476" stroke-linecap="round"/>
<path d="M19.5293 19.1163C22.4337 19.1163 24.7881 16.792 24.7881 13.9248C24.7881 11.0576 22.4337 8.73328 19.5293 8.73328C16.6249 8.73328 14.2705 11.0576 14.2705 13.9248C14.2705 16.792 16.6249 19.1163 19.5293 19.1163Z" stroke="#015AB8" stroke-width="2.12476" stroke-linecap="round" stroke-linejoin="round"/>
<path d="M19.5293 36.4209C29.2105 36.4209 37.0586 28.6732 37.0586 19.1159C37.0586 9.55862 29.2105 1.81091 19.5293 1.81091C9.84813 1.81091 2 9.55862 2 19.1159C2 28.6732 9.84813 36.4209 19.5293 36.4209Z" stroke="#015AB8" stroke-width="2.12476"/>
</svg>
